<svg xmlns="http://www.w3.org/2000/svg" width="100" height="100" fill="E8E9E1" viewBox="0 0 50 50">
  <path d="M12 39h32V2H12C8.691 2 6 4.691 6 8v34.417C6 45.496 8.691 48 12 48h32v-2H12c-2.168 0-4-1.641-4-3.583C8 40.501 9.757 39 12 39zm24.709-7.294a.997.997 0 0 1-1.414.002l-6.523-6.494-1.76 1.76-1.846-1.879 3.153-3.153 8.387 8.349c.391.39.393 1.023.003 1.415zM16.286 10.007l7.733 7.781-3.044 3.044L16.23 16a4.199 4.199 0 0 1 .056-5.993zm-1.957 20.286 13.024-13.024c-.034-.085-.083-.163-.107-.252-.399-1.509-.322-3.426 1.045-4.777 2.031-2.094 5.497-2.989 6.998-1.505 1.501 1.571.596 4.909-1.435 6.916-1.444 1.428-3.298 1.545-4.8 1.16-.104-.027-.196-.081-.294-.122L14.743 31.707c-.195.195.549.293.293.293s-.512-.098-.707-.293a.999.999 0 0 1 0-1.414z"/>
</svg>