<svg xmlns="http://www.w3.org/2000/svg" width="400" height="400" xml:space="preserve"><g><text xml:space="preserve" font-family="'Open Sans', sans-serif" font-size="20" style="stroke:none;stroke-width:1;stroke-dasharray:none;stroke-linecap:butt;stroke-dashoffset:0;stroke-linejoin:miter;stroke-miterlimit:4;fill:#000;fill-rule:nonzero;opacity:1;white-space:pre" transform="translate(515.5 244.91)"><tspan x="-65" y="-6.83" style="white-space:pre">Lorem </tspan><tspan x="-2.75" y="-6.83" style="font-style:italic;font-weight:700">ipsum</tspan><tspan x="-65" y="19.39" style="white-space:pre">dolor </tspan><tspan x="-14.97" y="19.39" style="font-family:'Impact';fill:red">sit</tspan><tspan x="6.02" y="19.39" style="white-space:pre"> amet</tspan></text></g><g transform="translate(225.5 75.5)"><linearGradient id="a" gradientUnits="userSpaceOnUse" gradientTransform="translate(-45 -25)" x1="0" y1="0" x2="90" y2="0"><stop offset="0%" style="stop-color:red;stop-opacity:1"/><stop offset="100%" style="stop-color:orange;stop-opacity:1"/></linearGradient><rect style="stroke:none;stroke-width:1;stroke-dasharray:none;stroke-linecap:butt;stroke-dashoffset:0;stroke-linejoin:miter;stroke-miterlimit:4;fill:url(#a);fill-rule:nonzero;opacity:1" x="-45" y="-25" rx="0" ry="0" width="90" height="50"/></g><g transform="translate(505.5 365.5)"><linearGradient id="b" gradientUnits="userSpaceOnUse" gradientTransform="translate(-65 -65)" x1="0" y1="0" x2="130" y2="130"><stop offset="0%" style="stop-color:#d150ff;stop-opacity:1"/><stop offset="100%" style="stop-color:#00f;stop-opacity:1"/></linearGradient><circle style="stroke:none;stroke-width:1;stroke-dasharray:none;stroke-linecap:butt;stroke-dashoffset:0;stroke-linejoin:miter;stroke-miterlimit:4;fill:url(#b);fill-rule:nonzero;opacity:1" r="65"/></g><path style="stroke:red;stroke-width:1;stroke-dasharray:none;stroke-linecap:butt;stroke-dashoffset:0;stroke-linejoin:miter;stroke-miterlimit:4;fill:#000;fill-rule:nonzero;opacity:1" d="m-45-70 40 20-10 40L5-30 45 70l-60-50" transform="translate(145.5 170.5)"/><path style="stroke:#fff;stroke-width:0;stroke-dasharray:none;stroke-linecap:butt;stroke-dashoffset:0;stroke-linejoin:miter;stroke-miterlimit:4;fill:#fff;fill-rule:nonzero;opacity:1" vector-effect="non-scaling-stroke" transform="translate(6.33 -1.12)" d="M343.111 371.556v-64L302.667 59.11H85.777l-36 277.778 12.445 28.444 31.556 12.89 249.333-6.667"/><path style="stroke:none;stroke-width:1;stroke-dasharray:none;stroke-linecap:butt;stroke-dashoffset:0;stroke-linejoin:miter;stroke-miterlimit:4;fill:#407549;fill-rule:nonzero;opacity:1" transform="matrix(8 0 0 8 .5 .5)" d="M12 39h32V2H12C8.691 2 6 4.691 6 8v34.417C6 45.496 8.691 48 12 48h32v-2H12c-2.168 0-4-1.641-4-3.583C8 40.501 9.757 39 12 39zm24.709-7.294a.997.997 0 0 1-1.414.002l-6.523-6.494-1.76 1.76-1.846-1.879 3.153-3.153 8.387 8.349c.391.39.393 1.023.003 1.415zM16.286 10.007l7.733 7.781-3.044 3.044L16.23 16a4.199 4.199 0 0 1 .056-5.993zm-1.957 20.286 13.024-13.024c-.034-.085-.083-.163-.107-.252-.399-1.509-.322-3.426 1.045-4.777 2.031-2.094 5.497-2.989 6.998-1.505 1.501 1.571.596 4.909-1.435 6.916-1.444 1.428-3.298 1.545-4.8 1.16-.104-.027-.196-.081-.294-.122L14.743 31.707c-.195.195.549.293.293.293s-.512-.098-.707-.293a.999.999 0 0 1 0-1.414z"/></svg>